<mxfile host="app.diagrams.net" modified="2023-11-23T15:54:57.678Z" agent="Mozilla/5.0 (Windows NT 10.0; Win64; x64; rv:109.0) Gecko/20100101 Firefox/119.0" etag="yFz7_F_S7VKnMR3jiAL4" version="22.1.3" type="device">
  <diagram name="Page-1" id="4LmB5GZ0mprEykmeVlWD">
    <mxGraphModel dx="989" dy="520" grid="1" gridSize="10" guides="1" tooltips="1" connect="1" arrows="1" fold="1" page="1" pageScale="1" pageWidth="850" pageHeight="1100" math="0" shadow="0">
      <root>
        <mxCell id="0" />
        <mxCell id="1" parent="0" />
        <mxCell id="N8L6gEgM6YYHgxHXgoXz-1" value="Actual label" style="rounded=0;whiteSpace=wrap;html=1;fillColor=none;" vertex="1" parent="1">
          <mxGeometry x="200" y="200" width="240" height="30" as="geometry" />
        </mxCell>
        <mxCell id="N8L6gEgM6YYHgxHXgoXz-4" value="1" style="rounded=0;whiteSpace=wrap;html=1;fillColor=none;" vertex="1" parent="1">
          <mxGeometry x="200" y="230" width="120" height="30" as="geometry" />
        </mxCell>
        <mxCell id="N8L6gEgM6YYHgxHXgoXz-5" value="0" style="rounded=0;whiteSpace=wrap;html=1;fillColor=none;" vertex="1" parent="1">
          <mxGeometry x="320" y="230" width="120" height="30" as="geometry" />
        </mxCell>
        <mxCell id="N8L6gEgM6YYHgxHXgoXz-6" value="1" style="rounded=0;whiteSpace=wrap;html=1;fillColor=none;" vertex="1" parent="1">
          <mxGeometry x="160" y="260" width="40" height="30" as="geometry" />
        </mxCell>
        <mxCell id="N8L6gEgM6YYHgxHXgoXz-7" value="0" style="rounded=0;whiteSpace=wrap;html=1;fillColor=none;" vertex="1" parent="1">
          <mxGeometry x="160" y="290" width="40" height="30" as="geometry" />
        </mxCell>
        <mxCell id="N8L6gEgM6YYHgxHXgoXz-8" value="&lt;div&gt;Predicted&lt;/div&gt;&lt;div&gt;label&lt;br&gt;&lt;/div&gt;" style="rounded=0;whiteSpace=wrap;html=1;fillColor=none;" vertex="1" parent="1">
          <mxGeometry x="80" y="260" width="80" height="60" as="geometry" />
        </mxCell>
        <mxCell id="N8L6gEgM6YYHgxHXgoXz-9" value="True Positive" style="rounded=0;whiteSpace=wrap;html=1;fillColor=none;" vertex="1" parent="1">
          <mxGeometry x="200" y="260" width="120" height="30" as="geometry" />
        </mxCell>
        <mxCell id="N8L6gEgM6YYHgxHXgoXz-10" value="False Positive" style="rounded=0;whiteSpace=wrap;html=1;fillColor=none;" vertex="1" parent="1">
          <mxGeometry x="320" y="260" width="120" height="30" as="geometry" />
        </mxCell>
        <mxCell id="N8L6gEgM6YYHgxHXgoXz-11" value="False Negative" style="rounded=0;whiteSpace=wrap;html=1;fillColor=none;" vertex="1" parent="1">
          <mxGeometry x="200" y="290" width="120" height="30" as="geometry" />
        </mxCell>
        <mxCell id="N8L6gEgM6YYHgxHXgoXz-12" value="True Negative" style="rounded=0;whiteSpace=wrap;html=1;fillColor=none;" vertex="1" parent="1">
          <mxGeometry x="320" y="290" width="120" height="30" as="geometry" />
        </mxCell>
      </root>
    </mxGraphModel>
  </diagram>
</mxfile>
